# xmcd
#
# Track frame offsets:
#	150
#	19210
#	42833
#	57035
#	79832
#	97377
#	118449
#	132374
#	156820
#	177166
#	204313
#	221324
#	239606
#	256536
#	275124
#	295887
#	324050
#	345074
#
# Disc length: 4790 seconds
#
# Revision: 4
# Processed by: cddbd v1.5.2PL0 Copyright (c) Steve Scherf et al.
# Submitted via: EZCDAudioConverter 6.0.0.1
#
DISCID=0112b412
DTITLE=Various Artist - Akella Presents - Rockin' Blues - vol.17  CD2  New!
DYEAR=2013
DGENRE=Blues
TTITLE0=BACKBONE SLIP - Breaking Up Somebody's Home
TTITLE1=JAMES SOLBERG - See That My Grave Is Kept Clean
TTITLE2=BLUE JEANS - Rock Me
TTITLE3=SLOLEAK - White Lines
TTITLE4=GEORGE THOROGOOD - The Usual
TTITLE5=VAN WILKS - Cold Side of Cool
TTITLE6=BIG ED SULLIVAN - What You Say and What You Do
TTITLE7=DAVE HOLE - Demolition Man
TTITLE8=The BUDDAH HEADS - Company Graveyard
TTITLE9=KEVIN THORPE - Blues In Bottle
TTITLE10=SY KLOPPS - My Name Is Sy Klopps
TTITLE11=TOTH BAGI BAND - Your Way
TTITLE12=CANNED HEAT - Too Much Giddyup
TTITLE13=The POUNDERS - Busted
TTITLE14=JIM SUHLERr and MONKEY BEAT - Bad News
TTITLE15=SON PHILLIPS - April Fool
TTITLE16=SMOKIN' JOE KUBEK - Worst Heartache
TTITLE17=UNDERDOGS - Florida Bound
EXTD=
EXTT0=
EXTT1=
EXTT2=
EXTT3=
EXTT4=
EXTT5=
EXTT6=
EXTT7=
EXTT8=
EXTT9=
EXTT10=
EXTT11=
EXTT12=
EXTT13=
EXTT14=
EXTT15=
EXTT16=
EXTT17=
PLAYORDER=
